<?xml version="1.0" encoding="UTF-8" standalone="no"?>
<!-- Created with Inkscape (http://www.inkscape.org/) -->

<svg
   xmlns:dc="http://purl.org/dc/elements/1.1/"
   xmlns:cc="http://creativecommons.org/ns#"
   xmlns:rdf="http://www.w3.org/1999/02/22-rdf-syntax-ns#"
   xmlns:svg="http://www.w3.org/2000/svg"
   xmlns="http://www.w3.org/2000/svg"
   xmlns:xlink="http://www.w3.org/1999/xlink"
   xmlns:sodipodi="http://sodipodi.sourceforge.net/DTD/sodipodi-0.dtd"
   xmlns:inkscape="http://www.inkscape.org/namespaces/inkscape"
   width="66.804268"
   height="16.40069"
   id="svg2"
   version="1.1"
   inkscape:version="0.92.5 (2060ec1f9f, 2020-04-08)"
   sodipodi:docname="demo_logo.svg"
   inkscape:export-filename="/home/neilm/all/my_github/njms_demos320/pics/logo_dark.png"
   inkscape:export-xdpi="371.60999"
   inkscape:export-ydpi="371.60999">
  <defs
     id="defs4">
    <linearGradient
       id="linearGradient3824">
      <stop
         style="stop-color:#a5abff;stop-opacity:1;"
         offset="0"
         id="stop3826" />
      <stop
         style="stop-color:#2918a3;stop-opacity:0.99159664;"
         offset="1"
         id="stop3828" />
    </linearGradient>
    <linearGradient
       id="linearGradient3759">
      <stop
         style="stop-color:#ffb4b4;stop-opacity:1;"
         offset="0"
         id="stop3761" />
      <stop
         style="stop-color:#a30904;stop-opacity:1;"
         offset="1"
         id="stop3763" />
    </linearGradient>
    <radialGradient
       inkscape:collect="always"
       xlink:href="#linearGradient3759"
       id="radialGradient3822"
       cx="12.076283"
       cy="1014.7914"
       fx="12.076283"
       fy="1014.7914"
       r="11.853178"
       gradientTransform="matrix(1,0,0,0.95982143,0,40.77287)"
       gradientUnits="userSpaceOnUse" />
    <radialGradient
       inkscape:collect="always"
       xlink:href="#linearGradient3824"
       id="radialGradient3830"
       cx="14.327777"
       cy="962.90021"
       fx="14.327777"
       fy="962.90021"
       r="9.4461222"
       gradientTransform="matrix(1,0,0,0.91219158,0,84.550746)"
       gradientUnits="userSpaceOnUse" />
    <radialGradient
       inkscape:collect="always"
       xlink:href="#linearGradient3759"
       id="radialGradient3775"
       cx="39.866867"
       cy="806.80664"
       fx="39.866867"
       fy="806.80664"
       r="39.09478"
       gradientTransform="matrix(0.36010095,0,0,0.12412299,1.1893593,1109.7437)"
       gradientUnits="userSpaceOnUse" />
    <radialGradient
       inkscape:collect="always"
       xlink:href="#linearGradient3824"
       id="radialGradient3787"
       cx="29.608656"
       cy="1095.9523"
       fx="29.608656"
       fy="1095.9523"
       r="28.902328"
       gradientTransform="matrix(0.40386055,0,0,0.12525531,42.974361,764.98588)"
       gradientUnits="userSpaceOnUse" />
    <inkscape:perspective
       id="perspective203"
       inkscape:persp3d-origin="171.6225 : 38.334999 : 1"
       inkscape:vp_z="343.245 : 57.502499 : 1"
       inkscape:vp_y="0 : 1000 : 0"
       inkscape:vp_x="0 : 57.502499 : 1"
       sodipodi:type="inkscape:persp3d" />
    <linearGradient
       id="linearGradient5555">
      <stop
         id="stop5557"
         offset="0"
         style="stop-color:#e30eff;stop-opacity:1;" />
      <stop
         id="stop5559"
         offset="1"
         style="stop-color:#780055;stop-opacity:1;" />
    </linearGradient>
    <linearGradient
       id="linearGradient5536">
      <stop
         style="stop-color:#e3b6ff;stop-opacity:1;"
         offset="0"
         id="stop5538" />
      <stop
         style="stop-color:#780055;stop-opacity:1;"
         offset="1"
         id="stop5540" />
    </linearGradient>
    <radialGradient
       id="SVGID_2_"
       cx="-152.3291"
       cy="295"
       r="1"
       gradientTransform="matrix(61.0007,0,0,-60.6164,9347.0068,17973.955)"
       gradientUnits="userSpaceOnUse">
      <stop
         offset="0"
         style="stop-color:#FF04CA"
         id="stop248" />
      <stop
         offset="1"
         style="stop-color:#230015"
         id="stop250" />
    </radialGradient>
    <radialGradient
       id="SVGID_42_"
       cx="-152.3291"
       cy="295"
       r="1"
       gradientTransform="matrix(61.0007,0,0,-60.6164,9347.0068,17973.955)"
       gradientUnits="userSpaceOnUse">
      <stop
         offset="0"
         style="stop-color:#FFFFFF"
         id="stop584" />
      <stop
         offset="0.15844116"
         style="stop-color:#F6F6F6"
         id="stop586" />
      <stop
         offset="0.33449414"
         style="stop-color:#DDDCDD"
         id="stop588" />
      <stop
         offset="0.41454136"
         style="stop-color:#B5B3B5"
         id="stop590" />
      <stop
         offset="0.7718637"
         style="stop-color:#7D7A7D"
         id="stop592" />
      <stop
         offset="0.95081866"
         style="stop-color:#363237"
         id="stop594" />
      <stop
         offset="1"
         style="stop-color:#221E23"
         id="stop596" />
    </radialGradient>
    <radialGradient
       id="SVGID_61_"
       cx="-152.3291"
       cy="295"
       r="1"
       gradientTransform="matrix(61.0007,0,0,-60.6164,9347.0068,17973.955)"
       gradientUnits="userSpaceOnUse">
      <stop
         offset="0"
         style="stop-color:#FF0FE3"
         id="stop785" />
      <stop
         offset="0.1189"
         style="stop-color:#F80EDC"
         id="stop787" />
      <stop
         offset="0.2958"
         style="stop-color:#E30CC8"
         id="stop789" />
      <stop
         offset="0.5089"
         style="stop-color:#C209A7"
         id="stop791" />
      <stop
         offset="0.7502"
         style="stop-color:#940579"
         id="stop793" />
      <stop
         offset="1"
         style="stop-color:#5D0042"
         id="stop795" />
    </radialGradient>
    <radialGradient
       id="SVGID_65_"
       cx="-152.3291"
       cy="295"
       r="1"
       gradientTransform="matrix(61.0007,0,0,-60.6164,9347.0068,17973.955)"
       gradientUnits="userSpaceOnUse">
      <stop
         offset="0"
         style="stop-color:#FF0FE3"
         id="stop829" />
      <stop
         offset="0.1189"
         style="stop-color:#F80EDC"
         id="stop831" />
      <stop
         offset="0.2958"
         style="stop-color:#E30CC8"
         id="stop833" />
      <stop
         offset="0.5089"
         style="stop-color:#C209A7"
         id="stop835" />
      <stop
         offset="0.7502"
         style="stop-color:#940579"
         id="stop837" />
      <stop
         offset="1"
         style="stop-color:#5D0042"
         id="stop839" />
    </radialGradient>
    <radialGradient
       id="SVGID_71_"
       cx="-152.3291"
       cy="295"
       r="1"
       gradientTransform="matrix(61.0007,0,0,-60.6164,9347.0068,17973.955)"
       gradientUnits="userSpaceOnUse">
      <stop
         offset="0"
         style="stop-color:#FF13EC"
         id="stop905" />
      <stop
         offset="0.1373"
         style="stop-color:#FA12E7"
         id="stop907" />
      <stop
         offset="0.3007"
         style="stop-color:#ED11D9"
         id="stop909" />
      <stop
         offset="0.4774"
         style="stop-color:#D60EC1"
         id="stop911" />
      <stop
         offset="0.6635"
         style="stop-color:#B70A9F"
         id="stop913" />
      <stop
         offset="0.8549"
         style="stop-color:#8F0574"
         id="stop915" />
      <stop
         offset="1"
         style="stop-color:#6C004F"
         id="stop917" />
    </radialGradient>
    <radialGradient
       r="1"
       cy="295"
       cx="-152.3291"
       gradientTransform="matrix(61.0007,0,0,-60.6164,9347.0068,17973.955)"
       gradientUnits="userSpaceOnUse"
       id="radialGradient3693"
       xlink:href="#SVGID_71_"
       inkscape:collect="always" />
    <radialGradient
       r="1"
       cy="295"
       cx="-152.3291"
       gradientTransform="matrix(61.0007,0,0,-60.6164,9347.0068,17973.955)"
       gradientUnits="userSpaceOnUse"
       id="radialGradient3712"
       xlink:href="#SVGID_65_"
       inkscape:collect="always" />
    <radialGradient
       r="1"
       cy="295"
       cx="-152.3291"
       gradientTransform="matrix(61.0007,0,0,-60.6164,9347.0068,17973.955)"
       gradientUnits="userSpaceOnUse"
       id="radialGradient3725"
       xlink:href="#SVGID_61_"
       inkscape:collect="always" />
    <linearGradient
       gradientUnits="userSpaceOnUse"
       y2="53.983665"
       x2="116.76203"
       y1="53.983665"
       x1="64.199532"
       id="linearGradient5510"
       xlink:href="#SVGID_2_"
       inkscape:collect="always" />
    <radialGradient
       gradientUnits="userSpaceOnUse"
       gradientTransform="matrix(-1.1571347,0.4557857,-0.4519642,-1.1474327,133.47947,45.843077)"
       r="52.916939"
       fy="19.643412"
       fx="52.358696"
       cy="19.643412"
       cx="52.358696"
       id="radialGradient5521"
       xlink:href="#SVGID_42_"
       inkscape:collect="always" />
    <radialGradient
       gradientUnits="userSpaceOnUse"
       gradientTransform="matrix(-1.0700005,-0.64104646,0.63712949,-1.063462,75.156215,102.94918)"
       r="43.382355"
       fy="38.290413"
       fx="53.986446"
       cy="38.290413"
       cx="53.986446"
       id="radialGradient5534"
       xlink:href="#linearGradient5536"
       inkscape:collect="always" />
    <linearGradient
       gradientUnits="userSpaceOnUse"
       y2="70.43811"
       x2="94.162834"
       y1="105.49635"
       x1="87.645592"
       id="linearGradient5553"
       xlink:href="#linearGradient5555"
       inkscape:collect="always" />
  </defs>
  <sodipodi:namedview
     id="base"
     pagecolor="#ffffff"
     bordercolor="#666666"
     borderopacity="1.0"
     inkscape:pageopacity="0.0"
     inkscape:pageshadow="2"
     inkscape:zoom="15.839192"
     inkscape:cx="35.110174"
     inkscape:cy="11.395008"
     inkscape:document-units="px"
     inkscape:current-layer="layer1"
     showgrid="false"
     inkscape:window-width="1920"
     inkscape:window-height="1007"
     inkscape:window-x="0"
     inkscape:window-y="0"
     inkscape:window-maximized="1"
     fit-margin-top="2"
     fit-margin-left="2"
     fit-margin-right="2"
     fit-margin-bottom="2" />
  <metadata
     id="metadata7">
    <rdf:RDF>
      <cc:Work
         rdf:about="">
        <dc:format>image/svg+xml</dc:format>
        <dc:type
           rdf:resource="http://purl.org/dc/dcmitype/StillImage" />
        <dc:title></dc:title>
      </cc:Work>
    </rdf:RDF>
  </metadata>
  <g
     inkscape:label="Layer 1"
     inkscape:groupmode="layer"
     id="layer1"
     transform="translate(0.55127023,-990.9253)">
    <text
       xml:space="preserve"
       style="font-style:normal;font-variant:normal;font-weight:normal;font-stretch:normal;font-size:10.48650265px;line-height:0%;font-family:'Century Gothic';-inkscape-font-specification:'Century Gothic';letter-spacing:0px;word-spacing:0px;fill:#000000;fill-opacity:1;stroke:none;stroke-width:0.87387526"
       x="15.422868"
       y="1097.7009"
       id="text3789"
       transform="scale(1.0924435,0.91537917)"><tspan
         sodipodi:role="line"
         id="tspan3791"
         x="15.422868"
         y="1097.7009"
         style="font-size:2.69666696px;line-height:1.25;stroke-width:0.87387526">Four Js Development Tools (EMEA)</tspan></text>
    <g
       style="display:inline"
       id="g4031"
       transform="matrix(0.12245193,0,0,0.13370609,0.14285643,991.45661)">
      <g
         style="display:inline"
         inkscape:label="text"
         id="layer2">
        <path
           d="m 186.779,73.219 c -8.514,0 -15.417,-6.902 -15.417,-15.418 0,-8.513 6.903,-15.417 15.417,-15.417 8.515,0 15.418,6.903 15.418,15.417 0,1.08 -0.11,2.135 -0.322,3.15 h -15.37 v -6.248 l 8.766,-0.012 c -1.265,-3.461 -4.59,-5.932 -8.491,-5.932 -4.993,0 -9.043,4.048 -9.043,9.041 0,4.994 4.05,9.041 9.043,9.041 v 6.378 z"
           id="path1070"
           transform="translate(1.657331e-6)"
           inkscape:connector-curvature="0" />
        <path
           d="m 258.925,73.219 c -8.514,0 -15.417,-6.902 -15.417,-15.418 0,-8.513 6.903,-15.417 15.417,-15.417 8.514,0 15.417,6.903 15.417,15.417 0,1.08 -0.111,2.135 -0.322,3.15 h -15.37 v -6.248 l 8.766,-0.012 c -1.267,-3.461 -4.591,-5.932 -8.49,-5.932 -4.993,0 -9.043,4.048 -9.043,9.041 0,4.994 4.05,9.041 9.043,9.041 v 6.378 z"
           id="path1072"
           transform="translate(1.657331e-6)"
           inkscape:connector-curvature="0" />
        <path
           d="m 151.947,42.266 c -8.516,0 -15.419,6.903 -15.419,15.417 0,8.516 6.903,15.418 15.419,15.418 8.514,0 15.417,-6.902 15.417,-15.418 0,-1.078 -0.113,-2.132 -0.323,-3.15 h -15.08 v 6.248 l 8.476,0.01 c -1.267,3.463 -4.591,5.934 -8.49,5.934 -4.996,0 -9.044,-4.047 -9.044,-9.041 0,-4.994 4.048,-9.041 9.044,-9.041 z"
           id="path1074"
           transform="translate(1.657331e-6)"
           inkscape:connector-curvature="0" />
        <path
           d="m 315.335,42.336 c -8.515,0 -15.418,6.903 -15.418,15.417 0,8.516 6.903,15.416 15.418,15.416 8.514,0 15.417,-6.9 15.417,-15.416 0,-8.513 -6.903,-15.417 -15.417,-15.417 m 0,24.459 c -4.993,0 -9.044,-4.049 -9.044,-9.041 0,-4.994 4.051,-9.041 9.044,-9.041 4.991,0 9.04,4.047 9.04,9.041 0,4.992 -4.049,9.041 -9.04,9.041 z"
           id="path1076"
           transform="translate(1.657331e-6)"
           inkscape:connector-curvature="0" />
        <path
           d="M 213.556,72.488 V 57.906 c 0,-4.994 4.05,-9.042 9.043,-9.042 4.992,0 9.04,4.049 9.04,9.042 v 14.582 h 6.377 V 57.906 c 0,-8.515 -6.903,-15.418 -15.417,-15.418 -8.515,0 -15.417,6.903 -15.417,15.418 v 14.582 z"
           id="path1078"
           transform="translate(1.657331e-6)"
           inkscape:connector-curvature="0" />
        <path
           d="m 295.108,42.488 c -8.514,0 -15.417,6.903 -15.417,15.418 v 14.582 h 6.374 V 57.906 c 0,-4.994 4.048,-9.042 9.043,-9.042 z"
           id="path1080"
           transform="translate(1.657331e-6)"
           inkscape:connector-curvature="0" />
        <path
           d="m 334.289,68.678 c 0,2.471 2.009,4.479 4.479,4.479 2.47,0 4.478,-2.008 4.478,-4.479 0,-2.467 -2.008,-4.477 -4.478,-4.477 -2.47,0 -4.479,2.01 -4.479,4.477 z m 1.033,0 c 0,-1.898 1.544,-3.443 3.445,-3.443 1.9,0 3.446,1.545 3.446,3.443 0,1.9 -1.546,3.445 -3.446,3.445 -1.901,0 -3.445,-1.545 -3.445,-3.445 z"
           id="path1082"
           transform="translate(1.657331e-6)"
           inkscape:connector-curvature="0" />
        <path
           d="m 340.699,70.688 h -1.332 l -1.01,-1.582 h -0.01 v 1.582 h -1.068 v -4.113 h 1.598 c 0.813,0 1.43,0.387 1.43,1.266 0,0.568 -0.316,1.059 -0.9,1.162 z m -2.351,-2.268 h 0.104 c 0.35,0 0.741,-0.066 0.741,-0.514 0,-0.448 -0.392,-0.514 -0.741,-0.514 h -0.104 z"
           id="path1084"
           transform="translate(1.657331e-6)"
           inkscape:connector-curvature="0" />
      </g>
      <g
         style="display:inline"
         inkscape:label="baseCircle"
         id="layer6">
        <path
           d="m 114.17,57.535 c 0,30.941 -25.083,56.024 -56.016,56.024 -30.942,0 -56.025,-25.083 -56.025,-56.024 0,-30.933 25.083,-56.016 56.025,-56.016 30.933,0 56.016,25.083 56.016,56.016"
           id="path238"
           style="display:inline;fill:#840265"
           transform="translate(8.2866544e-6)"
           inkscape:connector-curvature="0" />
      </g>
      <g
         inkscape:label="BottomArc"
         id="layer17">
        <path
           sodipodi:nodetypes="cccc"
           transform="translate(-1.657331e-6)"
           id="path5545"
           d="m 25.844213,103.09419 c 53.788799,4.06385 71.516371,-9.859273 85.173537,-40.00235 -1.75103,18.176165 -9.749,33.645324 -29.439931,44.04753 -14.602078,6.68854 -39.49828,12.24116 -55.733606,-4.04518 z"
           style="fill:url(#linearGradient5553);fill-opacity:1;stroke:none"
           inkscape:connector-curvature="0" />
      </g>
      <g
         style="display:inline"
         inkscape:label="right"
         id="layer9">
        <path
           sodipodi:nodetypes="ccccc"
           transform="translate(-1.657331e-6)"
           id="path5502"
           d="m 68.33118,52.394567 41.63435,-8.263306 c 7.36709,7.849954 2.14477,13.410925 0.95346,19.704806 l -14.464332,-3.18755 z"
           style="fill:url(#linearGradient5510);fill-opacity:1;stroke:none"
           inkscape:connector-curvature="0" />
      </g>
      <g
         style="display:inline"
         inkscape:label="lower"
         id="layer8">
        <path
           d="m 81.918,52.717 c 0.438,1.826 0.67,3.731 0.67,5.691 0,8.18 -4.037,15.413 -10.226,19.819 0.102,0.081 0.202,0.163 0.303,0.246 9.811,7.731 10.691,16.984 9.756,23.289 0.444,-0.239 0.891,-0.486 1.336,-0.739 18.647,-10.623 25.338,-26.085 27.602,-37.74 -8.61,-4.75 -18.581,-8.379 -29.441,-10.566"
           id="path797"
           style="display:inline;fill:url(#radialGradient3725)"
           transform="translate(6.6293236e-6)"
           inkscape:connector-curvature="0" />
        <path
           sodipodi:nodetypes="ccccccccccccc"
           d="m 22.956,100.997 c 4.482,3.52 9.519,6.362 14.959,8.376 -4.441,-2.1 -8.341,-4.675 -12.152,-6.976 -1.058,-0.497 -1.997,-0.97 -2.807,-1.4 M 34.227,65.774 c -9.761,4.189 -18.996,8.777 -27.63,13.721 2.734,6.411 6.628,12.208 11.421,17.128 1.272,1.27 2.606,2.477 3.997,3.618 1.25,0.671 2.494,1.398 3.749,2.156 19.455503,8.48744 39.080701,7.44215 58.209695,-1.13975 C 91.097434,91.550962 93.26117,58.941908 83.064362,54.618888 83.280398,44.898612 56.175937,64.451323 56.010417,57.958833 52.197417,55.138833 35.885,70.305 34.227,65.774"
           id="path841"
           style="display:inline;fill:url(#radialGradient3712)"
           transform="translate(6.6293236e-6)"
           inkscape:connector-curvature="0" />
      </g>
      <g
         style="display:inline"
         inkscape:label="left"
         id="layer10">
        <path
           sodipodi:nodetypes="cccccccc"
           d="M 78.029716,53.266494 C 77.654319,49.941439 34.723509,47.973812 2.53,68.549913 3.171,73.887913 6.5845906,80.119575 8.6185906,84.888575 14.429776,77.909666 63.056103,56.379336 73.966663,54.643704 M 2.486,51.178 c -0.113,1.001 -0.2,2.011 -0.259,3.027 0.067,-0.693 0.146,-1.39 0.235,-2.091 0.006,-0.312 0.014,-0.622 0.024,-0.936"
           id="path919"
           style="display:inline;fill:url(#radialGradient3693)"
           transform="translate(6.6293236e-6)"
           inkscape:connector-curvature="0" />
      </g>
      <g
         style="display:inline;opacity:0.91240875"
         inkscape:label="upperNew"
         id="layer15">
        <path
           sodipodi:nodetypes="ccc"
           transform="translate(-1.657331e-6)"
           id="path5513"
           d="M 2.7832591,67.881248 C 40.335756,48.123931 76.160304,46.708555 111.31392,62.877129 126.57285,-10.584733 3.1201803,-24.102847 2.7832591,67.881248 Z"
           style="opacity:0.4;fill:url(#radialGradient5521);fill-opacity:1;stroke:none"
           inkscape:connector-curvature="0" />
      </g>
      <g
         style="display:inline"
         inkscape:label="TopArc"
         id="layer16">
        <path
           sodipodi:nodetypes="cccc"
           transform="translate(-1.657331e-6)"
           id="path5524"
           d="M 2.2247361,60.340053 C 4.2246984,42.919419 8.1993844,25.907348 27.332472,12.031498 47.464058,-0.09099701 68.097192,-1.0797069 88.539979,12.667136 43.268286,-0.06895693 13.745098,20.656063 2.2247361,60.340053 Z"
           style="fill:url(#radialGradient5534);fill-opacity:1;stroke:none"
           inkscape:connector-curvature="0" />
      </g>
      <g
         id="g5481"
         inkscape:label="G2 copy"
         style="display:inline">
        <path
           style="display:inline;fill:#7b0055;fill-opacity:1"
           id="path5483"
           d="m 91.097911,28.906542 c 0,3.636 -2.943,6.579 -6.579,6.579 -3.627,0 -6.579,-2.943 -6.579,-6.579 0,-3.627 2.952,-6.579 6.579,-6.579 3.636,0 6.579,2.952 6.579,6.579"
           inkscape:connector-curvature="0" />
        <path
           style="display:inline;fill:#7b0056;fill-opacity:1"
           id="path5485"
           d="m 70.523909,77.092542 c 17.415,13.176 8.118,31.085998 8.118,31.085998 0,0 -7.245,3.187 -19.368,4.176 13.815,-2.268 20.808,-25.037998 -0.603,-30.878998 -8.217,-1.448 -0.324,-3.807 -0.324,-3.807 0,0 3.357,-1.962 12.177,-0.576"
           inkscape:connector-curvature="0" />
        <path
           style="display:inline;fill:#7b0055;fill-opacity:1"
           id="path5487"
           d="m 56.699909,33.154542 c -13.428,0 -24.3,10.881 -24.3,24.3 0,13.428 10.872,24.309 24.3,24.309 13.419,0 24.3,-10.881 24.3,-24.309 0,-13.419 -10.881,-24.3 -24.3,-24.3 m 0,39.708 c -8.514,0 -15.408,-6.895 -15.408,-15.408 0,-8.505 6.894,-15.399 15.408,-15.399 8.505,0 15.408,6.894 15.408,15.399 0,8.514 -6.903,15.408 -15.408,15.408"
           inkscape:connector-curvature="0" />
      </g>
      <g
         style="display:inline"
         inkscape:label="G2"
         id="layer14">
        <path
           transform="translate(8.2866544e-6)"
           d="m 92.687,29.86 c 0,3.636 -2.943,6.579 -6.579,6.579 -3.627,0 -6.579,-2.943 -6.579,-6.579 0,-3.627 2.952,-6.579 6.579,-6.579 3.636,0 6.579,2.952 6.579,6.579"
           id="path616"
           style="display:inline;fill:#ffffff"
           inkscape:connector-curvature="0" />
        <path
           d="m 72.113,78.046 c 17.415,13.176 8.118,31.086 8.118,31.086 0,0 -7.245,3.187 -19.368,4.176 13.815,-2.268 20.808,-25.038 -0.603,-30.879 -8.217,-1.448 -0.324,-3.807 -0.324,-3.807 0,0 3.357,-1.962 12.177,-0.576"
           id="path614"
           style="display:inline;fill:#ffffff"
           transform="translate(6.6293236e-6)"
           inkscape:connector-curvature="0" />
        <path
           d="m 58.289,34.108 c -13.428,0 -24.3,10.881 -24.3,24.3 0,13.428 10.872,24.309 24.3,24.309 13.419,0 24.3,-10.881 24.3,-24.309 0,-13.419 -10.881,-24.3 -24.3,-24.3 m 0,39.708 c -8.514,0 -15.408,-6.895 -15.408,-15.408 0,-8.505 6.894,-15.399 15.408,-15.399 8.505,0 15.408,6.894 15.408,15.399 0,8.514 -6.903,15.408 -15.408,15.408"
           id="path612"
           style="display:inline;fill:#ffffff"
           transform="translate(6.6293236e-6)"
           inkscape:connector-curvature="0" />
      </g>
      <g
         style="display:inline"
         inkscape:label="OuterCircle"
         id="layer7">
        <path
           d="m 113.429,56.971 -1.5,0.015 c 0.002,0.189 0.003,0.378 0.003,0.566 0.001,29.819 -24.023,54.147 -53.912,54.45 -0.19,0.002 -0.38,0.003 -0.569,0.003 C 27.633,112.006 3.305,87.979 3.003,58.094 3.001,57.906 3,57.718 3,57.53 2.999,27.708 27.022,3.379 56.913,3.078 c 0.188,-0.002 0.376,-0.003 0.564,-0.003 29.821,-0.001 54.15,24.022 54.452,53.912 l 1.5,-0.016 1.5,-0.016 C 114.608,25.419 88.943,0.076 57.477,0.075 57.279,0.075 57.081,0.076 56.882,0.078 25.345,0.399 0.001,26.063 0,57.53 c 0,0.197 0.001,0.396 0.003,0.595 0.321,31.532 25.984,56.879 57.448,56.88 0.2,0 0.399,-10e-4 0.6,-0.003 31.536,-0.322 56.88,-25.985 56.881,-57.45 0,-0.198 -0.001,-0.397 -0.003,-0.596 z"
           id="path1068"
           style="display:inline;fill:#840265"
           transform="translate(6.6293236e-6)"
           inkscape:connector-curvature="0" />
      </g>
    </g>
  </g>
  <g
     inkscape:groupmode="layer"
     id="layer3"
     inkscape:label="Demos">
    <text
       xml:space="preserve"
       style="font-style:normal;font-weight:normal;font-size:6.23350096px;line-height:1.25;font-family:sans-serif;letter-spacing:0px;word-spacing:0px;fill:#000000;fill-opacity:1;stroke:none;stroke-width:0.15583758"
       x="42.460052"
       y="10.66243"
       id="text112"
       transform="scale(1.036389,0.96488871)"><tspan
         sodipodi:role="line"
         id="tspan110"
         x="42.460052"
         y="10.66243"
         style="font-style:normal;font-variant:normal;font-weight:bold;font-stretch:normal;font-size:6.23356247px;font-family:'Century Gothic';-inkscape-font-specification:'Century Gothic, Bold';font-variant-ligatures:normal;font-variant-caps:normal;font-variant-numeric:normal;font-feature-settings:normal;text-align:start;writing-mode:lr-tb;text-anchor:start;stroke-width:0.15583758">Demos</tspan></text>
  </g>
</svg>
