<svg xmlns="http://www.w3.org/2000/svg"  viewBox="0 0 64 64" width="64px" height="64px"><path d="M 20 12 C 8.972 12 0 20.972 0 32 C 0 43.028 8.972 52 20 52 C 23.749 52 27.243188 50.938812 30.242188 49.132812 C 27.136187 47.333813 21 42.457 21 32 C 21 22.165 27.292422 16.912547 30.357422 14.935547 C 27.333422 13.086547 23.797 12 20 12 z M 44 12 C 39.495 12 35.347 13.514109 32 16.037109 C 30.537 17.140109 29.233094 18.435625 28.121094 19.890625 C 28.034094 20.003625 27.948281 20.117422 27.863281 20.232422 C 27.574281 20.627422 27.301016 21.033219 27.041016 21.449219 C 26.908016 21.662219 26.775391 21.87575 26.650391 22.09375 C 26.515391 22.32875 26.383812 22.565641 26.257812 22.806641 C 26.049813 23.205641 25.851922 23.609438 25.669922 24.023438 C 25.588922 24.208437 25.516406 24.396984 25.441406 24.583984 C 25.283406 24.975984 25.138859 25.373344 25.005859 25.777344 C 24.963859 25.904344 24.915953 26.026297 24.876953 26.154297 C 24.717953 26.671297 24.587703 27.200375 24.470703 27.734375 C 24.440703 27.871375 24.409812 28.009438 24.382812 28.148438 C 24.273812 28.700437 24.187 29.258219 24.125 29.824219 C 24.113 29.936219 24.10475 30.049109 24.09375 30.162109 C 24.03675 30.768109 24 31.38 24 32 C 24 32.62 24.03775 33.230937 24.09375 33.835938 C 24.10375 33.948937 24.110047 34.061828 24.123047 34.173828 C 24.185047 34.740828 24.271859 35.300562 24.380859 35.851562 C 24.407859 35.990563 24.43875 36.125672 24.46875 36.263672 C 24.58575 36.797672 24.717953 37.32675 24.876953 37.84375 C 24.915953 37.97175 24.963859 38.095656 25.005859 38.222656 C 25.138859 38.625656 25.283406 39.022063 25.441406 39.414062 C 25.516406 39.602063 25.590875 39.791563 25.671875 39.976562 C 25.853875 40.390563 26.049812 40.795359 26.257812 41.193359 C 26.383813 41.435359 26.514391 41.67025 26.650391 41.90625 C 26.775391 42.12325 26.908016 42.336828 27.041016 42.548828 C 27.301016 42.965828 27.575234 43.371578 27.865234 43.767578 C 27.949234 43.882578 28.035094 43.995375 28.121094 44.109375 C 29.233094 45.564375 30.538953 46.859891 32.001953 47.962891 C 35.346953 50.485891 39.495 52 44 52 C 55.028 52 64 43.028 64 32 C 64 20.972 55.028 12 44 12 z M 44 16 C 52.822 16 60 23.178 60 32 C 60 40.822 52.822 48 44 48 C 40.654 48 37.547562 46.964172 34.976562 45.201172 C 38.094563 41.678172 40 37.064 40 32 C 40 26.936 38.094563 22.321828 34.976562 18.798828 C 37.547562 17.035828 40.654 16 44 16 z"/></svg>