<svg xmlns="http://www.w3.org/2000/svg"  viewBox="0 0 64 64" width="64px" height="64px"><path d="M 17.705078 4 C 16.722078 4 15.885469 4.7135938 15.730469 5.6835938 L 8.3691406 51.683594 C 8.1751406 52.898594 9.1157031 54 10.345703 54 L 16.988281 54 C 17.984281 54 18.82875 53.26725 18.96875 52.28125 L 24.722656 18.914062 L 24.726562 18.992188 L 24.771484 18.675781 C 24.911484 17.713781 25.735031 17 26.707031 17 L 28.748047 17 L 42 17 C 45.635 17 48.587859 17.5715 50.755859 18.8125 C 50.872859 18.1695 50.954 17.56 51 17 C 51.66 9.027 46.348 4 37 4 L 17.705078 4 z M 50.755859 18.8125 C 49.597859 25.1875 44.808 35 33 35 L 26.884766 35 C 25.900766 35 25.062203 35.7155 24.908203 36.6875 L 20.576172 57.689453 C 20.385172 58.902453 21.323734 60 22.552734 60 L 29.347656 60 C 30.306656 60 31.1315 59.318953 31.3125 58.376953 L 33.746094 45.703125 C 33.892094 44.724125 34.732656 44 35.722656 44 L 40 44 C 51.478 44 55 34 55 27 C 55 23.047 53.511859 20.3895 50.755859 18.8125 z M 27.597656 20 L 25.630859 32 L 33 32 C 42.367 32 45.951562 24.69575 47.226562 20.59375 C 45.803562 20.19875 44.055 20 42 20 L 27.597656 20 z"/></svg>